999
FreeCAD v0.20 29177 +426 (Git)
  0
SECTION
  2
HEADER
  9
$ACADVER
  1
AC1014
  9
$ACADMAINTVER
 70
     9
  9
$DWGCODEPAGE
  3
ANSI_1252
  9
$TEXTSTYLE
  7
STANDARD
  9
$DIMSTYLE
  2
STANDARD
  9
$DIMTXSTY
  7
STANDARD
  9
$CMLSTYLE
  2
STANDARD
  9
$LUNITS
 70
2
  9
$INSUNITS
 70
4
  9
$PEXTMAX
 10
50
 20
50
 30
50
  9
$PEXTMIN
 10
0
 20
0
 30
0
  9
$HANDSEED
  5
FFFF
  0
ENDSEC
  0
SECTION
  2
CLASSES
  0
CLASS
  1
ACDBDICTIONARYWDFLT
  2
AcDbDictionaryWithDefault
  3
ObjectDBX Classes
 90
        0
280
     0
281
     0
  0
CLASS
  1
XRECORD
  2
AcDbXrecord
  3
ObjectDBX Classes
 90
        0
280
     0
281
     0
  0
CLASS
  1
LWPOLYLINE
  2
AcDbPolyline
  3
ObjectDBX Classes
 90
        0
280
     0
281
     1
  0
ENDSEC
  0
SECTION
  2
TABLES
  0
TABLE
  2
VPORT
  5
20
330
0
100
AcDbSymbolTable
 70
     1
  0
VPORT
  5
21
330
20
100
AcDbSymbolTableRecord
100
AcDbViewportTableRecord
  2
*ACTIVE
 70
     0
  0
ENDTAB
  0
TABLE
  2
LTYPE
  5
22
330
0
100
AcDbSymbolTable
 70
     1
  0
LTYPE
  5
23
330
21
100
AcDbSymbolTableRecord
100
AcDbLinetypeTableRecord
  2
BYBLOCK
 70
     0
  3

 72
    65
 73
     0
 40
0.0
  0
LTYPE
  5
24
330
21
100
AcDbSymbolTableRecord
100
AcDbLinetypeTableRecord
  2
BYLAYER
 70
     0
  3

 72
    65
 73
     0
 40
0.0
  0
LTYPE
  5
25
330
21
100
AcDbSymbolTableRecord
100
AcDbLinetypeTableRecord
  2
CONTINUOUS
 70
     0
  3
Solid line
 72
    65
 73
     0
 40
0.0
  0
ENDTAB
  0
TABLE
  2
LAYER
  5
AB7
330
0
100
AcDbSymbolTable
 70
5
  0
LAYER
  5
AB8
330
AB7
100
AcDbSymbolTableRecord
100
AcDbLayerTableRecord
  2
0
 70
   0
 62
   7
  6
CONTINUOUS
  0
LAYER
  5
AB9
330
AB7
100
AcDbSymbolTableRecord
100
AcDbLayerTableRecord
  2
ProjItem
 70
    0
 62
    7
  6
CONTINUOUS
  0
LAYER
  5
ABA
330
AB7
100
AcDbSymbolTableRecord
100
AcDbLayerTableRecord
  2
Dimension
 70
    0
 62
    7
  6
CONTINUOUS
  0
LAYER
  5
ABB
330
AB7
100
AcDbSymbolTableRecord
100
AcDbLayerTableRecord
  2
Dimension001
 70
    0
 62
    7
  6
CONTINUOUS
  0
LAYER
  5
ABC
330
AB7
100
AcDbSymbolTableRecord
100
AcDbLayerTableRecord
  2
Dimension002
 70
    0
 62
    7
  6
CONTINUOUS
  0
ENDTAB
  0
TABLE
  2
STYLE
  5
70
330
0
100
AcDbSymbolTable
 70
     2
  0
STYLE
  5
71
330
70
100
AcDbSymbolTableRecord
100
AcDbTextStyleTableRecord
  2
STANDARD
 70
     0
 40
0.0
 41
1.0
 50
0.0
 71
     0
 42
2.5
  3
arial.ttf
  4

  0
STYLE
  5
72
330
70
100
AcDbSymbolTableRecord
100
AcDbTextStyleTableRecord
  2
ANNOTATIVE
 70
     0
 40
0.0
 41
1.0
 50
0.0
 71
     0
 42
2.5
  3
arial.ttf
  4

  0
ENDTAB
  0
TABLE
  2
VIEW
  5
73
330
0
100
AcDbSymbolTable
 70
     0
  0
ENDTAB
  0
TABLE
  2
UCS
  5
74
330
0
100
AcDbSymbolTable
 70
     0
  0
ENDTAB
  0
TABLE
  2
APPID
  5
75
330
0
100
AcDbSymbolTable
 70
     2
  0
APPID
  5
76
330
75
100
AcDbSymbolTableRecord
100
AcDbRegAppTableRecord
  2
ACAD
 70
     0
  0
APPID
  5
77
330
75
100
AcDbSymbolTableRecord
100
AcDbRegAppTableRecord
  2
ACADANNOTATIVE
 70
     0
  0
ENDTAB
  0
TABLE
  2
DIMSTYLE
  5
78
330
0
100
AcDbSymbolTable
 70
     2
  0
DIMSTYLE
105
79
330
78
100
AcDbSymbolTableRecord
100
AcDbDimStyleTableRecord
  2
STANDARD
 70
     0
  3

  4

  5

  6

  7

 40
0.0
 41
2.5
 42
0.625
 43
3.75
 44
1.25
 45
0.0
 46
0.0
 47
0.0
 48
0.0
140
2.5
141
2.5
142
0.0
143
0.03937007874016
144
1.0
145
0.0
146
1.0
147
0.625
 71
     0
 72
     0
 73
     0
 74
     0
 75
     0
 76
     0
 77
     1
 78
     8
170
     0
171
     3
172
     1
173
     0
174
     0
175
     0
176
     0
177
     0
178
     0
270
     2
271
     2
272
     2
273
     2
274
     3
340
71
275
     0
280
     0
281
     0
282
     0
283
     0
284
     8
285
     0
286
     0
287
     3
288
     0
  0
ENDTAB
  0
TABLE
  2
BLOCK_RECORD
  5
A01
330
0
100
AcDbSymbolTable
  70
5
  0
BLOCK_RECORD
  5
A02
330
A01
100
AcDbSymbolTableRecord
100
AcDbBlockTableRecord
  2
*MODEL_SPACE
  0
BLOCK_RECORD
  5
A03
330
A01
100
AcDbSymbolTableRecord
100
AcDbBlockTableRecord
  2
*PAPER_SPACE
  0
BLOCK_RECORD
  5
A9E
330
A01
100
AcDbSymbolTableRecord
100
AcDbBlockTableRecord
  2
*Dimension
  0
BLOCK_RECORD
  5
AA8
330
A01
100
AcDbSymbolTableRecord
100
AcDbBlockTableRecord
  2
*Dimension001
  0
BLOCK_RECORD
  5
AB0
330
A01
100
AcDbSymbolTableRecord
100
AcDbBlockTableRecord
  2
*Dimension002
  0
ENDTAB
  0
ENDSEC
  0
SECTION
  2
BLOCKS
  0
BLOCK
  5
A04
330
A02
100
AcDbEntity
  8
0
100
AcDbBlockBegin
  2
*MODEL_SPACE
 70
   0
 10
0
 20
0
 30
0
  3
*MODEL_SPACE
  1
 
  0
ENDBLK
  5
A05
330
A02
100
AcDbEntity
  8
0
100
AcDbBlockEnd
  0
BLOCK
  5
A06
330
A03
100
AcDbEntity
 67
1
  8
0
100
AcDbBlockBegin
  2
*PAPER_SPACE
 70
   0
 10
0
 20
0
 30
0
  3
*PAPER_SPACE
  1
 
  0
ENDBLK
  5
A07
330
A03
100
AcDbEntity
 67
    1
  8
0
100
AcDbBlockEnd
  0
BLOCK
  5
A9F
330
A9E
100
AcDbEntity
  8
Dimension
100
AcDbBlockBegin
  2
*Dimension
 70
   1
 10
0
 20
0
 30
0
  3
*Dimension
  1
 
  0
LINE
  5
AA0
330
A9E
100
AcDbEntity
  8
Dimension
100
AcDbLine
 10
126.254
 20
129.042
 30
0
 11
85.1683
 21
115.721
 31
0
  0
LINE
  5
AA1
330
A9E
100
AcDbEntity
  8
Dimension
100
AcDbLine
 10
129.537
 20
119.279
 30
0
 11
88.4505
 21
105.958
 31
0
  0
LINE
  5
AA2
330
A9E
100
AcDbEntity
  8
Dimension
100
AcDbLine
 10
88.4505
 20
105.958
 30
0
 11
85.1683
 21
115.721
 31
0
  0
TEXT
  5
AA3
330
A9E
100
AcDbEntity
  8
Dimension
100
AcDbText
 10
89.9076
 20
114.128
 30
0
 40
3.5
  1
10,3
  7
STANDARD
 72
1
 11
85.1683
 21
115.721
 31
0
100
AcDbText
  0
SOLID
  5
AA4
330
A9E
100
AcDbEntity
  8
0
 62
     0
100
AcDbTrace
 10
87.2536
 20
110.826
 30
0
 11
86.4608
 21
110.569
 31
0
 12
88.4505
 22
105.958
 32
0
 13
88.4505
 23
105.958
 33
0
  0
SOLID
  5
AA5
330
A9E
100
AcDbEntity
  8
0
 62
     0
100
AcDbTrace
 10
87.158
 20
111.11
 30
0
 11
86.3652
 21
110.853
 31
0
 12
85.1683
 22
115.721
 32
0
 13
85.1683
 23
115.721
 33
0
  0
ENDBLK
  5
AA6
330
A9E
100
AcDbEntity
  8
Dimension
100
AcDbBlockEnd
  0
BLOCK
  5
AA9
330
AA8
100
AcDbEntity
  8
Dimension001
100
AcDbBlockBegin
  2
*Dimension001
 70
   1
 10
0
 20
0
 30
0
  3
*Dimension001
  1
 
  0
LINE
  5
AAA
330
AA8
100
AcDbEntity
  8
Dimension001
100
AcDbLine
 10
141.463
 20
133.715
 30
0
 11
136.494
 21
134.278
 31
0
  0
TEXT
  5
AAB
330
AA8
100
AcDbEntity
  8
Dimension001
100
AcDbText
 10
170.332
 20
136.245
 30
0
 40
3.5
  1
⌀5
  7
STANDARD
 72
1
 11
170.332
 21
136.245
 31
0
100
AcDbText
  0
SOLID
  5
AAC
330
AA8
100
AcDbEntity
  8
0
 62
     0
100
AcDbTrace
 10
136.447
 20
133.864
 30
0
 11
136.541
 21
134.692
 31
0
 12
141.463
 22
133.715
 32
0
 13
141.463
 23
133.715
 33
0
  0
SOLID
  5
AAD
330
AA8
100
AcDbEntity
  8
0
 62
     0
100
AcDbTrace
 10
141.416
 20
133.301
 30
0
 11
141.51
 21
134.129
 31
0
 12
136.494
 22
134.278
 32
0
 13
136.494
 23
134.278
 33
0
  0
ENDBLK
  5
AAE
330
AA8
100
AcDbEntity
  8
Dimension001
100
AcDbBlockEnd
  0
BLOCK
  5
AB1
330
AB0
100
AcDbEntity
  8
Dimension002
100
AcDbBlockBegin
  2
*Dimension002
 70
   1
 10
0
 20
0
 30
0
  3
*Dimension002
  1
 
  0
LINE
  5
AB2
330
AB0
100
AcDbEntity
  8
Dimension002
100
AcDbLine
 10
149.897
 20
108.687
 30
0
 11
146.96
 21
109.299
 31
0
  0
TEXT
  5
AB3
330
AB0
100
AcDbEntity
  8
Dimension002
100
AcDbText
 10
173.029
 20
109.753
 30
0
 40
3.5
  1
⌀3
  7
STANDARD
 72
1
 11
173.029
 21
109.753
 31
0
100
AcDbText
  0
SOLID
  5
AB4
330
AB0
100
AcDbEntity
  8
0
 62
     0
100
AcDbTrace
 10
144.917
 20
109.3
 30
0
 11
145.087
 21
110.115
 31
0
 12
149.897
 22
108.687
 32
0
 13
149.897
 23
108.687
 33
0
  0
SOLID
  5
AB5
330
AB0
100
AcDbEntity
  8
0
 62
     0
100
AcDbTrace
 10
151.77
 20
107.871
 30
0
 11
151.94
 21
108.686
 31
0
 12
146.96
 22
109.299
 32
0
 13
146.96
 23
109.299
 33
0
  0
ENDBLK
  5
AB6
330
AB0
100
AcDbEntity
  8
Dimension002
100
AcDbBlockEnd
  0
ENDSEC
  0
SECTION
  2
ENTITIES
  0
ARC
  5
A08
330
A02
100
AcDbEntity
  8
ProjItem
100
AcDbCircle
 10
151.201
 20
102.677
 30
0
 40
1.93934
100
AcDbArc
 50
-122.999
 51
-53.8496
  0
ARC
  5
A09
330
A02
100
AcDbEntity
  8
ProjItem
100
AcDbCircle
 10
150.924
 20
102.415
 30
0
 40
1.9289
100
AcDbArc
 50
-42.5286
 51
27.1966
  0
ARC
  5
A0A
330
A02
100
AcDbEntity
  8
ProjItem
100
AcDbCircle
 10
149.753
 20
102.002
 30
0
 40
3.1641
100
AcDbArc
 50
24.1572
 51
30.6714
  0
ARC
  5
A0B
330
A02
100
AcDbEntity
  8
ProjItem
100
AcDbCircle
 10
95.1577
 20
84.713
 30
0
 40
60.3529
100
AcDbArc
 50
18.2525
 51
19.0667
  0
ARC
  5
A0C
330
A02
100
AcDbEntity
  8
ProjItem
100
AcDbCircle
 10
153.462
 20
104.746
 30
0
 40
1.30149
100
AcDbArc
 50
138.667
 51
-165.882
  0
ARC
  5
A0D
330
A02
100
AcDbEntity
  8
ProjItem
100
AcDbCircle
 10
153.257
 20
104.869
 30
0
 40
1.06723
100
AcDbArc
 50
76.6407
 51
136.383
  0
ARC
  5
A0E
330
A02
100
AcDbEntity
  8
ProjItem
100
AcDbCircle
 10
153.196
 20
102.504
 30
0
 40
3.41767
100
AcDbArc
 50
69.4687
 51
84.8277
  0
ARC
  5
A0F
330
A02
100
AcDbEntity
  8
ProjItem
100
AcDbCircle
 10
150.052
 20
94.0146
 30
0
 40
12.4703
100
AcDbArc
 50
68.112
 51
69.6216
  0
ARC
  5
A10
330
A02
100
AcDbEntity
  8
ProjItem
100
AcDbCircle
 10
155.393
 20
107.396
 30
0
 40
1.93779
100
AcDbArc
 50
-110.928
 51
-41.7117
  0
ARC
  5
A11
330
A02
100
AcDbEntity
  8
ProjItem
100
AcDbCircle
 10
155.178
 20
107.085
 30
0
 40
1.92781
100
AcDbArc
 50
-30.4932
 51
39.1333
  0
ARC
  5
A12
330
A02
100
AcDbEntity
  8
ProjItem
100
AcDbCircle
 10
154.119
 20
106.435
 30
0
 40
3.1641
100
AcDbArc
 50
36.1572
 51
42.6714
  0
ARC
  5
A13
330
A02
100
AcDbEntity
  8
ProjItem
100
AcDbCircle
 10
104.312
 20
78.1727
 30
0
 40
60.3529
100
AcDbArc
 50
30.2525
 51
31.0667
  0
ARC
  5
A14
330
A02
100
AcDbEntity
  8
ProjItem
100
AcDbCircle
 10
157.196
 20
109.8
 30
0
 40
1.28226
100
AcDbArc
 50
150.847
 51
-157.847
  0
ARC
  5
A15
330
A02
100
AcDbEntity
  8
ProjItem
100
AcDbCircle
 10
157.196
 20
109.738
 30
0
 40
1.31423
100
AcDbArc
 50
98.5146
 51
148.485
  0
ARC
  5
A16
330
A02
100
AcDbEntity
  8
ProjItem
100
AcDbCircle
 10
157.382
 20
107.642
 30
0
 40
3.41767
100
AcDbArc
 50
81.4687
 51
96.3979
  0
ARC
  5
A17
330
A02
100
AcDbEntity
  8
ProjItem
100
AcDbCircle
 10
156.072
 20
98.6841
 30
0
 40
12.4703
100
AcDbArc
 50
80.112
 51
81.6216
  0
ARC
  5
A18
330
A02
100
AcDbEntity
  8
ProjItem
100
AcDbCircle
 10
158.515
 20
112.884
 30
0
 40
1.93779
100
AcDbArc
 50
-98.9284
 51
-29.7117
  0
ARC
  5
A19
330
A02
100
AcDbEntity
  8
ProjItem
100
AcDbCircle
 10
158.369
 20
112.535
 30
0
 40
1.92781
100
AcDbArc
 50
-18.4932
 51
51.1333
  0
ARC
  5
A1A
330
A02
100
AcDbEntity
  8
ProjItem
100
AcDbCircle
 10
157.468
 20
111.678
 30
0
 40
3.1641
100
AcDbArc
 50
48.1572
 51
54.6714
  0
ARC
  5
A1B
330
A02
100
AcDbEntity
  8
ProjItem
100
AcDbCircle
 10
114.626
 20
73.6786
 30
0
 40
60.3529
100
AcDbArc
 50
42.2525
 51
43.0667
  0
ARC
  5
A1C
330
A02
100
AcDbEntity
  8
ProjItem
100
AcDbCircle
 10
159.778
 20
115.61
 30
0
 40
1.28226
100
AcDbArc
 50
162.847
 51
-145.847
  0
ARC
  5
A1D
330
A02
100
AcDbEntity
  8
ProjItem
100
AcDbCircle
 10
159.792
 20
115.55
 30
0
 40
1.31423
100
AcDbArc
 50
110.515
 51
160.485
  0
ARC
  5
A1E
330
A02
100
AcDbEntity
  8
ProjItem
100
AcDbCircle
 10
160.41
 20
113.537
 30
0
 40
3.41767
100
AcDbArc
 50
93.4687
 51
108.398
  0
ARC
  5
A1F
330
A02
100
AcDbEntity
  8
ProjItem
100
AcDbCircle
 10
160.991
 20
104.503
 30
0
 40
12.4703
100
AcDbArc
 50
92.112
 51
93.6216
  0
ARC
  5
A20
330
A02
100
AcDbEntity
  8
ProjItem
100
AcDbCircle
 10
160.427
 20
118.9
 30
0
 40
1.93779
100
AcDbArc
 50
-86.9284
 51
-17.7117
  0
ARC
  5
A21
330
A02
100
AcDbEntity
  8
ProjItem
100
AcDbCircle
 10
160.358
 20
118.529
 30
0
 40
1.92781
100
AcDbArc
 50
-6.49321
 51
63.1333
  0
ARC
  5
A22
330
A02
100
AcDbEntity
  8
ProjItem
100
AcDbCircle
 10
159.654
 20
117.504
 30
0
 40
3.1641
100
AcDbArc
 50
60.1572
 51
66.6714
  0
ARC
  5
A23
330
A02
100
AcDbEntity
  8
ProjItem
100
AcDbCircle
 10
125.648
 20
71.427
 30
0
 40
60.3529
100
AcDbArc
 50
54.2525
 51
55.0667
  0
ARC
  5
A24
330
A02
100
AcDbEntity
  8
ProjItem
100
AcDbCircle
 10
161.096
 20
121.83
 30
0
 40
1.28226
100
AcDbArc
 50
174.847
 51
-133.847
  0
ARC
  5
A25
330
A02
100
AcDbEntity
  8
ProjItem
100
AcDbCircle
 10
161.122
 20
121.773
 30
0
 40
1.31423
100
AcDbArc
 50
122.515
 51
172.485
  0
ARC
  5
A26
330
A02
100
AcDbEntity
  8
ProjItem
100
AcDbCircle
 10
162.145
 20
119.934
 30
0
 40
3.41767
100
AcDbArc
 50
105.469
 51
120.398
  0
ARC
  5
A27
330
A02
100
AcDbEntity
  8
ProjItem
100
AcDbCircle
 10
164.591
 20
111.218
 30
0
 40
12.4703
100
AcDbArc
 50
104.112
 51
105.622
  0
ARC
  5
A28
330
A02
100
AcDbEntity
  8
ProjItem
100
AcDbCircle
 10
161.047
 20
125.183
 30
0
 40
1.93779
100
AcDbArc
 50
-74.9284
 51
-5.71172
  0
ARC
  5
A29
330
A02
100
AcDbEntity
  8
ProjItem
100
AcDbCircle
 10
161.056
 20
124.805
 30
0
 40
1.92781
100
AcDbArc
 50
5.50679
 51
75.1333
  0
ARC
  5
A2A
330
A02
100
AcDbEntity
  8
ProjItem
100
AcDbCircle
 10
160.581
 20
123.657
 30
0
 40
3.1641
100
AcDbArc
 50
72.1572
 51
78.6714
  0
ARC
  5
A2B
330
A02
100
AcDbEntity
  8
ProjItem
100
AcDbCircle
 10
136.898
 20
71.5164
 30
0
 40
60.3529
100
AcDbArc
 50
66.2525
 51
67.0667
  0
ARC
  5
A2C
330
A02
100
AcDbEntity
  8
ProjItem
100
AcDbCircle
 10
161.092
 20
128.188
 30
0
 40
1.28226
100
AcDbArc
 50
-173.153
 51
-121.847
  0
ARC
  5
A2D
330
A02
100
AcDbEntity
  8
ProjItem
100
AcDbCircle
 10
161.129
 20
128.138
 30
0
 40
1.31423
100
AcDbArc
 50
134.515
 51
-175.515
  0
ARC
  5
A2E
330
A02
100
AcDbEntity
  8
ProjItem
100
AcDbCircle
 10
162.512
 20
126.551
 30
0
 40
3.41767
100
AcDbArc
 50
117.469
 51
132.398
  0
ARC
  5
A2F
330
A02
100
AcDbEntity
  8
ProjItem
100
AcDbCircle
 10
166.717
 20
118.535
 30
0
 40
12.4703
100
AcDbArc
 50
116.112
 51
117.622
  0
ARC
  5
A30
330
A02
100
AcDbEntity
  8
ProjItem
100
AcDbCircle
 10
160.347
 20
131.458
 30
0
 40
1.93779
100
AcDbArc
 50
-62.9284
 51
6.28828
  0
ARC
  5
A31
330
A02
100
AcDbEntity
  8
ProjItem
100
AcDbCircle
 10
160.435
 20
131.09
 30
0
 40
1.92781
100
AcDbArc
 50
17.5068
 51
87.1333
  0
ARC
  5
A32
330
A02
100
AcDbEntity
  8
ProjItem
100
AcDbCircle
 10
160.209
 20
129.868
 30
0
 40
3.1641
100
AcDbArc
 50
84.1572
 51
90.6714
  0
ARC
  5
A33
330
A02
100
AcDbEntity
  8
ProjItem
100
AcDbCircle
 10
147.884
 20
73.9428
 30
0
 40
60.3529
100
AcDbArc
 50
78.2525
 51
79.0667
  0
ARC
  5
A34
330
A02
100
AcDbEntity
  8
ProjItem
100
AcDbCircle
 10
159.766
 20
134.406
 30
0
 40
1.28226
100
AcDbArc
 50
-161.153
 51
-109.847
  0
ARC
  5
A35
330
A02
100
AcDbEntity
  8
ProjItem
100
AcDbCircle
 10
159.813
 20
134.365
 30
0
 40
1.31423
100
AcDbArc
 50
146.515
 51
-163.515
  0
ARC
  5
A36
330
A02
100
AcDbEntity
  8
ProjItem
100
AcDbCircle
 10
161.496
 20
133.101
 30
0
 40
3.41767
100
AcDbArc
 50
129.469
 51
144.398
  0
ARC
  5
A37
330
A02
100
AcDbEntity
  8
ProjItem
100
AcDbCircle
 10
167.276
 20
126.133
 30
0
 40
12.4703
100
AcDbArc
 50
128.112
 51
129.622
  0
ARC
  5
A38
330
A02
100
AcDbEntity
  8
ProjItem
100
AcDbCircle
 10
158.358
 20
137.449
 30
0
 40
1.93779
100
AcDbArc
 50
-50.9284
 51
18.2883
  0
ARC
  5
A39
330
A02
100
AcDbEntity
  8
ProjItem
100
AcDbCircle
 10
158.52
 20
137.108
 30
0
 40
1.92781
100
AcDbArc
 50
29.5068
 51
99.1333
  0
ARC
  5
A3A
330
A02
100
AcDbEntity
  8
ProjItem
100
AcDbCircle
 10
158.553
 20
135.866
 30
0
 40
3.1641
100
AcDbArc
 50
96.1572
 51
102.671
  0
ARC
  5
A3B
330
A02
100
AcDbEntity
  8
ProjItem
100
AcDbCircle
 10
158.125
 20
78.6003
 30
0
 40
60.3529
100
AcDbArc
 50
90.2525
 51
91.0667
  0
ARC
  5
A3C
330
A02
100
AcDbEntity
  8
ProjItem
100
AcDbCircle
 10
157.177
 20
140.213
 30
0
 40
1.28226
100
AcDbArc
 50
-149.153
 51
-97.8471
  0
ARC
  5
A3D
330
A02
100
AcDbEntity
  8
ProjItem
100
AcDbCircle
 10
157.231
 20
140.182
 30
0
 40
1.31423
100
AcDbArc
 50
158.515
 51
-151.515
  0
ARC
  5
A3E
330
A02
100
AcDbEntity
  8
ProjItem
100
AcDbCircle
 10
159.14
 20
139.295
 30
0
 40
3.41767
100
AcDbArc
 50
141.469
 51
156.398
  0
ARC
  5
A3F
330
A02
100
AcDbEntity
  8
ProjItem
100
AcDbCircle
 10
166.242
 20
133.682
 30
0
 40
12.4703
100
AcDbArc
 50
140.112
 51
141.622
  0
ARC
  5
A40
330
A02
100
AcDbEntity
  8
ProjItem
100
AcDbCircle
 10
155.166
 20
142.897
 30
0
 40
1.93779
100
AcDbArc
 50
-38.9284
 51
30.2883
  0
ARC
  5
A41
330
A02
100
AcDbEntity
  8
ProjItem
100
AcDbCircle
 10
155.396
 20
142.597
 30
0
 40
1.92781
100
AcDbArc
 50
41.5068
 51
111.133
  0
ARC
  5
A42
330
A02
100
AcDbEntity
  8
ProjItem
100
AcDbCircle
 10
155.687
 20
141.388
 30
0
 40
3.1641
100
AcDbArc
 50
108.157
 51
114.671
  0
ARC
  5
A43
330
A02
100
AcDbEntity
  8
ProjItem
100
AcDbCircle
 10
167.174
 20
85.2853
 30
0
 40
60.3529
100
AcDbArc
 50
102.253
 51
103.067
  0
ARC
  5
A44
330
A02
100
AcDbEntity
  8
ProjItem
100
AcDbCircle
 10
153.436
 20
145.354
 30
0
 40
1.28226
100
AcDbArc
 50
-137.153
 51
-85.8471
  0
ARC
  5
A45
330
A02
100
AcDbEntity
  8
ProjItem
100
AcDbCircle
 10
153.496
 20
145.336
 30
0
 40
1.31423
100
AcDbArc
 50
170.515
 51
-139.515
  0
ARC
  5
A46
330
A02
100
AcDbEntity
  8
ProjItem
100
AcDbCircle
 10
155.547
 20
144.865
 30
0
 40
3.41767
100
AcDbArc
 50
153.469
 51
168.398
  0
ARC
  5
A47
330
A02
100
AcDbEntity
  8
ProjItem
100
AcDbCircle
 10
163.662
 20
140.851
 30
0
 40
12.4703
100
AcDbArc
 50
152.112
 51
153.622
  0
ARC
  5
A48
330
A02
100
AcDbEntity
  8
ProjItem
100
AcDbCircle
 10
150.912
 20
147.561
 30
0
 40
1.93779
100
AcDbArc
 50
-26.9284
 51
42.2883
  0
ARC
  5
A49
330
A02
100
AcDbEntity
  8
ProjItem
100
AcDbCircle
 10
151.199
 20
147.316
 30
0
 40
1.92781
100
AcDbArc
 50
53.5068
 51
123.133
  0
ARC
  5
A4A
330
A02
100
AcDbEntity
  8
ProjItem
100
AcDbCircle
 10
151.735
 20
146.194
 30
0
 40
3.1641
100
AcDbArc
 50
120.157
 51
126.671
  0
ARC
  5
A4B
330
A02
100
AcDbEntity
  8
ProjItem
100
AcDbCircle
 10
174.635
 20
93.7055
 30
0
 40
60.3529
100
AcDbArc
 50
114.253
 51
115.067
  0
ARC
  5
A4C
330
A02
100
AcDbEntity
  8
ProjItem
100
AcDbCircle
 10
148.709
 20
149.606
 30
0
 40
1.28226
100
AcDbArc
 50
-125.153
 51
-73.8471
  0
ARC
  5
A4D
330
A02
100
AcDbEntity
  8
ProjItem
100
AcDbCircle
 10
148.771
 20
149.6
 30
0
 40
1.31423
100
AcDbArc
 50
-177.485
 51
-127.515
  0
ARC
  5
A4E
330
A02
100
AcDbEntity
  8
ProjItem
100
AcDbCircle
 10
150.876
 20
149.566
 30
0
 40
3.41767
100
AcDbArc
 50
165.469
 51
-179.602
  0
ARC
  5
A4F
330
A02
100
AcDbEntity
  8
ProjItem
100
AcDbCircle
 10
159.647
 20
147.327
 30
0
 40
12.4703
100
AcDbArc
 50
164.112
 51
165.622
  0
ARC
  5
A50
330
A02
100
AcDbEntity
  8
ProjItem
100
AcDbCircle
 10
145.781
 20
151.24
 30
0
 40
1.93779
100
AcDbArc
 50
-14.9284
 51
54.2883
  0
ARC
  5
A51
330
A02
100
AcDbEntity
  8
ProjItem
100
AcDbCircle
 10
146.112
 20
151.059
 30
0
 40
1.92781
100
AcDbArc
 50
65.5068
 51
135.133
  0
ARC
  5
A52
330
A02
100
AcDbEntity
  8
ProjItem
100
AcDbCircle
 10
146.87
 20
150.073
 30
0
 40
3.1641
100
AcDbArc
 50
132.157
 51
138.671
  0
ARC
  5
A53
330
A02
100
AcDbEntity
  8
ProjItem
100
AcDbCircle
 10
180.183
 20
103.493
 30
0
 40
60.3529
100
AcDbArc
 50
126.253
 51
127.067
  0
ARC
  5
A54
330
A02
100
AcDbEntity
  8
ProjItem
100
AcDbCircle
 10
143.201
 20
152.781
 30
0
 40
1.28226
100
AcDbArc
 50
-113.153
 51
-61.8471
  0
ARC
  5
A55
330
A02
100
AcDbEntity
  8
ProjItem
100
AcDbCircle
 10
143.263
 20
152.788
 30
0
 40
1.31423
100
AcDbArc
 50
-165.485
 51
-115.515
  0
ARC
  5
A56
330
A02
100
AcDbEntity
  8
ProjItem
100
AcDbCircle
 10
145.328
 20
153.193
 30
0
 40
3.41767
100
AcDbArc
 50
177.469
 51
-167.602
  0
ARC
  5
A57
330
A02
100
AcDbEntity
  8
ProjItem
100
AcDbCircle
 10
154.374
 20
152.826
 30
0
 40
12.4703
100
AcDbArc
 50
176.112
 51
177.622
  0
ARC
  5
A58
330
A02
100
AcDbEntity
  8
ProjItem
100
AcDbCircle
 10
139.997
 20
153.771
 30
0
 40
1.93779
100
AcDbArc
 50
-2.9284
 51
66.2883
  0
ARC
  5
A59
330
A02
100
AcDbEntity
  8
ProjItem
100
AcDbCircle
 10
140.359
 20
153.663
 30
0
 40
1.92781
100
AcDbArc
 50
77.5068
 51
147.133
  0
ARC
  5
A5A
330
A02
100
AcDbEntity
  8
ProjItem
100
AcDbCircle
 10
141.305
 20
152.856
 30
0
 40
3.1641
100
AcDbArc
 50
144.157
 51
150.671
  0
ARC
  5
A5B
330
A02
100
AcDbEntity
  8
ProjItem
100
AcDbCircle
 10
183.575
 20
114.22
 30
0
 40
60.3529
100
AcDbArc
 50
138.253
 51
139.067
  0
ARC
  5
A5C
330
A02
100
AcDbEntity
  8
ProjItem
100
AcDbCircle
 10
137.153
 20
154.742
 30
0
 40
1.28226
100
AcDbArc
 50
-101.153
 51
-49.8471
  0
ARC
  5
A5D
330
A02
100
AcDbEntity
  8
ProjItem
100
AcDbCircle
 10
137.212
 20
154.762
 30
0
 40
1.31423
100
AcDbArc
 50
-153.485
 51
-103.515
  0
ARC
  5
A5E
330
A02
100
AcDbEntity
  8
ProjItem
100
AcDbCircle
 10
139.148
 20
155.587
 30
0
 40
3.41767
100
AcDbArc
 50
-170.531
 51
-155.602
  0
ARC
  5
A5F
330
A02
100
AcDbEntity
  8
ProjItem
100
AcDbCircle
 10
148.072
 20
157.109
 30
0
 40
12.4703
100
AcDbArc
 50
-171.888
 51
-170.378
  0
ARC
  5
A60
330
A02
100
AcDbEntity
  8
ProjItem
100
AcDbCircle
 10
133.813
 20
155.044
 30
0
 40
1.93779
100
AcDbArc
 50
9.0716
 51
78.2883
  0
ARC
  5
A61
330
A02
100
AcDbEntity
  8
ProjItem
100
AcDbCircle
 10
134.19
 20
155.014
 30
0
 40
1.92781
100
AcDbArc
 50
89.5068
 51
159.133
  0
ARC
  5
A62
330
A02
100
AcDbEntity
  8
ProjItem
100
AcDbCircle
 10
135.282
 20
154.421
 30
0
 40
3.1641
100
AcDbArc
 50
156.157
 51
162.671
  0
ARC
  5
A63
330
A02
100
AcDbEntity
  8
ProjItem
100
AcDbCircle
 10
184.662
 20
125.418
 30
0
 40
60.3529
100
AcDbArc
 50
150.253
 51
151.067
  0
ARC
  5
A64
330
A02
100
AcDbEntity
  8
ProjItem
100
AcDbCircle
 10
130.829
 20
155.403
 30
0
 40
1.28226
100
AcDbArc
 50
-89.1529
 51
-37.8471
  0
ARC
  5
A65
330
A02
100
AcDbEntity
  8
ProjItem
100
AcDbCircle
 10
130.883
 20
155.434
 30
0
 40
1.31423
100
AcDbArc
 50
-141.485
 51
-91.5146
  0
ARC
  5
A66
330
A02
100
AcDbEntity
  8
ProjItem
100
AcDbCircle
 10
132.606
 20
156.644
 30
0
 40
3.41767
100
AcDbArc
 50
-158.531
 51
-143.602
  0
ARC
  5
A67
330
A02
100
AcDbEntity
  8
ProjItem
100
AcDbCircle
 10
141.018
 20
159.988
 30
0
 40
12.4703
100
AcDbArc
 50
-159.888
 51
-158.378
  0
ARC
  5
A68
330
A02
100
AcDbEntity
  8
ProjItem
100
AcDbCircle
 10
127.5
 20
155.004
 30
0
 40
1.93779
100
AcDbArc
 50
21.0716
 51
90.2883
  0
ARC
  5
A69
330
A02
100
AcDbEntity
  8
ProjItem
100
AcDbCircle
 10
127.875
 20
155.052
 30
0
 40
1.92781
100
AcDbArc
 50
101.507
 51
171.133
  0
ARC
  5
A6A
330
A02
100
AcDbEntity
  8
ProjItem
100
AcDbCircle
 10
129.067
 20
154.7
 30
0
 40
3.1641
100
AcDbArc
 50
168.157
 51
174.671
  0
ARC
  5
A6B
330
A02
100
AcDbEntity
  8
ProjItem
100
AcDbCircle
 10
183.397
 20
136.597
 30
0
 40
60.3529
100
AcDbArc
 50
162.253
 51
163.067
  0
ARC
  5
A6C
330
A02
100
AcDbEntity
  8
ProjItem
100
AcDbCircle
 10
124.507
 20
154.734
 30
0
 40
1.28226
100
AcDbArc
 50
-77.1529
 51
-25.8471
  0
ARC
  5
A6D
330
A02
100
AcDbEntity
  8
ProjItem
100
AcDbCircle
 10
124.552
 20
154.776
 30
0
 40
1.31423
100
AcDbArc
 50
-129.485
 51
-79.5146
  0
ARC
  5
A6E
330
A02
100
AcDbEntity
  8
ProjItem
100
AcDbCircle
 10
125.986
 20
156.318
 30
0
 40
3.41767
100
AcDbArc
 50
-146.531
 51
-131.602
  0
ARC
  5
A6F
330
A02
100
AcDbEntity
  8
ProjItem
100
AcDbCircle
 10
133.519
 20
161.338
 30
0
 40
12.4703
100
AcDbArc
 50
-147.888
 51
-146.378
  0
ARC
  5
A70
330
A02
100
AcDbEntity
  8
ProjItem
100
AcDbCircle
 10
121.333
 20
153.652
 30
0
 40
1.93779
100
AcDbArc
 50
33.0716
 51
102.288
  0
ARC
  5
A71
330
A02
100
AcDbEntity
  8
ProjItem
100
AcDbCircle
 10
121.689
 20
153.777
 30
0
 40
1.92781
100
AcDbArc
 50
113.507
 51
-176.867
  0
ARC
  5
A72
330
A02
100
AcDbEntity
  8
ProjItem
100
AcDbCircle
 10
122.928
 20
153.68
 30
0
 40
3.1641
100
AcDbArc
 50
-179.843
 51
-173.329
  0
ARC
  5
A73
330
A02
100
AcDbEntity
  8
ProjItem
100
AcDbCircle
 10
179.835
 20
147.269
 30
0
 40
60.3529
100
AcDbArc
 50
174.253
 51
175.067
  0
ARC
  5
A74
330
A02
100
AcDbEntity
  8
ProjItem
100
AcDbCircle
 10
118.461
 20
152.766
 30
0
 40
1.28226
100
AcDbArc
 50
-65.1529
 51
-13.8471
  0
ARC
  5
A75
330
A02
100
AcDbEntity
  8
ProjItem
100
AcDbCircle
 10
118.497
 20
152.817
 30
0
 40
1.31423
100
AcDbArc
 50
-117.485
 51
-67.5146
  0
ARC
  5
A76
330
A02
100
AcDbEntity
  8
ProjItem
100
AcDbCircle
 10
119.579
 20
154.622
 30
0
 40
3.41767
100
AcDbArc
 50
-134.531
 51
-119.602
  0
ARC
  5
A77
330
A02
100
AcDbEntity
  8
ProjItem
100
AcDbCircle
 10
125.904
 20
161.099
 30
0
 40
12.4703
100
AcDbArc
 50
-135.888
 51
-134.378
  0
ARC
  5
A78
330
A02
100
AcDbEntity
  8
ProjItem
100
AcDbCircle
 10
115.582
 20
151.047
 30
0
 40
1.93779
100
AcDbArc
 50
45.0716
 51
114.288
  0
ARC
  5
A79
330
A02
100
AcDbEntity
  8
ProjItem
100
AcDbCircle
 10
115.904
 20
151.244
 30
0
 40
1.92781
100
AcDbArc
 50
125.507
 51
-164.867
  0
ARC
  5
A7A
330
A02
100
AcDbEntity
  8
ProjItem
100
AcDbCircle
 10
117.137
 20
151.407
 30
0
 40
3.1641
100
AcDbArc
 50
-167.843
 51
-161.329
  0
ARC
  5
A7B
330
A02
100
AcDbEntity
  8
ProjItem
100
AcDbCircle
 10
174.133
 20
156.967
 30
0
 40
60.3529
100
AcDbArc
 50
-173.747
 51
-172.933
  0
ARC
  5
A7C
330
A02
100
AcDbEntity
  8
ProjItem
100
AcDbCircle
 10
112.957
 20
149.583
 30
0
 40
1.28226
100
AcDbArc
 50
-53.1529
 51
-1.84707
  0
ARC
  5
A7D
330
A02
100
AcDbEntity
  8
ProjItem
100
AcDbCircle
 10
112.982
 20
149.641
 30
0
 40
1.31423
100
AcDbArc
 50
-105.485
 51
-55.5146
  0
ARC
  5
A7E
330
A02
100
AcDbEntity
  8
ProjItem
100
AcDbCircle
 10
113.664
 20
151.632
 30
0
 40
3.41767
100
AcDbArc
 50
-122.531
 51
-107.602
  0
ARC
  5
A7F
330
A02
100
AcDbEntity
  8
ProjItem
100
AcDbCircle
 10
118.504
 20
159.282
 30
0
 40
12.4703
100
AcDbArc
 50
-123.888
 51
-122.378
  0
ARC
  5
A80
330
A02
100
AcDbEntity
  8
ProjItem
100
AcDbCircle
 10
110.498
 20
147.303
 30
0
 40
1.93779
100
AcDbArc
 50
57.0716
 51
126.288
  0
ARC
  5
A81
330
A02
100
AcDbEntity
  8
ProjItem
100
AcDbCircle
 10
110.772
 20
147.563
 30
0
 40
1.92781
100
AcDbArc
 50
137.507
 51
-152.867
  0
ARC
  5
A82
330
A02
100
AcDbEntity
  8
ProjItem
100
AcDbCircle
 10
111.944
 20
147.979
 30
0
 40
3.1641
100
AcDbArc
 50
-155.843
 51
-149.329
  0
ARC
  5
A83
330
A02
100
AcDbEntity
  8
ProjItem
100
AcDbCircle
 10
166.539
 20
165.268
 30
0
 40
60.3529
100
AcDbArc
 50
-161.747
 51
-160.933
  0
ARC
  5
A84
330
A02
100
AcDbEntity
  8
ProjItem
100
AcDbCircle
 10
108.235
 20
145.326
 30
0
 40
1.28226
100
AcDbArc
 50
-41.1529
 51
10.1529
  0
ARC
  5
A85
330
A02
100
AcDbEntity
  8
ProjItem
100
AcDbCircle
 10
108.247
 20
145.387
 30
0
 40
1.31423
100
AcDbArc
 50
-93.4854
 51
-43.5146
  0
ARC
  5
A86
330
A02
100
AcDbEntity
  8
ProjItem
100
AcDbCircle
 10
108.501
 20
147.477
 30
0
 40
3.41767
100
AcDbArc
 50
-110.531
 51
-95.6021
  0
ARC
  5
A87
330
A02
100
AcDbEntity
  8
ProjItem
100
AcDbCircle
 10
111.644
 20
155.966
 30
0
 40
12.4703
100
AcDbArc
 50
-111.888
 51
-110.378
  0
ARC
  5
A88
330
A02
100
AcDbEntity
  8
ProjItem
100
AcDbCircle
 10
106.301
 20
142.585
 30
0
 40
1.93868
100
AcDbArc
 50
69.0029
 51
138.312
  0
ARC
  5
A89
330
A02
100
AcDbEntity
  8
ProjItem
100
AcDbCircle
 10
106.518
 20
142.899
 30
0
 40
1.92957
100
AcDbArc
 50
149.634
 51
-140.802
  0
ARC
  5
A8A
330
A02
100
AcDbEntity
  8
ProjItem
100
AcDbCircle
 10
107.577
 20
143.546
 30
0
 40
3.1641
100
AcDbArc
 50
-143.843
 51
-137.329
  0
ARC
  5
A8B
330
A02
100
AcDbEntity
  8
ProjItem
100
AcDbCircle
 10
157.385
 20
171.808
 30
0
 40
60.3529
100
AcDbArc
 50
-149.747
 51
-148.933
  0
ARC
  5
A8C
330
A02
100
AcDbEntity
  8
ProjItem
100
AcDbCircle
 10
100.859
 20
138.602
 30
0
 40
5.25142
100
AcDbArc
 50
-20.3786
 51
23.1195
  0
ARC
  5
A8D
330
A02
100
AcDbEntity
  8
ProjItem
100
AcDbCircle
 10
75.3275
 20
109.882
 30
0
 40
40.6274
100
AcDbArc
 50
15.359
 51
41.4452
  0
ARC
  5
A8E
330
A02
100
AcDbEntity
  8
ProjItem
100
AcDbCircle
 10
131.76
 20
125.946
 30
0
 40
18.0527
100
AcDbArc
 50
-162.914
 51
-93.4861
  0
ARC
  5
A8F
330
A02
100
AcDbEntity
  8
ProjItem
100
AcDbCircle
 10
122.781
 20
66.7874
 30
0
 40
41.8878
100
AcDbArc
 50
55.4733
 51
79.1554
  0
ARC
  5
A90
330
A02
100
AcDbEntity
  8
ProjItem
100
AcDbCircle
 10
148.077
 20
99.1212
 30
0
 40
2.67416
100
AcDbArc
 50
68.5089
 51
125.537
  0
ARC
  5
A91
330
A02
100
AcDbEntity
  8
ProjItem
100
AcDbCircle
 10
148.032
 20
98.3489
 30
0
 40
3.41767
100
AcDbArc
 50
57.4687
 51
72.556
  0
ARC
  5
A92
330
A02
100
AcDbEntity
  8
ProjItem
100
AcDbCircle
 10
143.192
 20
90.6988
 30
0
 40
12.4703
100
AcDbArc
 50
56.112
 51
57.6216
  0
LINE
  5
A93
330
A02
100
AcDbEntity
  8
ProjItem
100
AcDbLine
 10
125.077
 20
123.213
 30
0
 11
129.537
 21
119.279
 31
0
  0
LINE
  5
A94
330
A02
100
AcDbEntity
  8
ProjItem
100
AcDbLine
 10
129.537
 20
119.279
 30
0
 11
135.173
 21
121.174
 31
0
  0
LINE
  5
A95
330
A02
100
AcDbEntity
  8
ProjItem
100
AcDbLine
 10
135.173
 20
121.174
 30
0
 11
136.35
 21
127.003
 31
0
  0
LINE
  5
A96
330
A02
100
AcDbEntity
  8
ProjItem
100
AcDbLine
 10
136.35
 20
127.003
 30
0
 11
131.891
 21
130.937
 31
0
  0
LINE
  5
A97
330
A02
100
AcDbEntity
  8
ProjItem
100
AcDbLine
 10
131.891
 20
130.937
 30
0
 11
126.254
 21
129.042
 31
0
  0
LINE
  5
A98
330
A02
100
AcDbEntity
  8
ProjItem
100
AcDbLine
 10
126.254
 20
129.042
 30
0
 11
125.077
 21
123.213
 31
0
  0
CIRCLE
  5
A99
330
A02
100
AcDbEntity
  8
ProjItem
100
AcDbCircle
 10
134.586
 20
113.461
 40
2.5
  0
CIRCLE
  5
A9A
330
A02
100
AcDbEntity
  8
ProjItem
100
AcDbCircle
 10
118.998
 20
127.533
 40
2.5
  0
CIRCLE
  5
A9B
330
A02
100
AcDbEntity
  8
ProjItem
100
AcDbCircle
 10
138.979
 20
133.996
 40
2.5
  0
CIRCLE
  5
A9C
330
A02
100
AcDbEntity
  8
ProjItem
100
AcDbCircle
 10
148.428
 20
108.993
 40
1.5
  0
DIMENSION
  5
A9D
330
A02
100
AcDbEntity
  8
Dimension
100
AcDbDimension
  2
*Dimension
 10
85.1683
 20
115.721
 30
0
 11
89.9076
 21
114.128
 31
0
 70
1
  1
10,3
  3
STANDARD
100
AcDbAlignedDimension
 13
129.537
 23
119.279
 33
0
 14
126.254
 24
129.042
 34
0
  0
DIMENSION
  5
AA7
330
A02
100
AcDbEntity
  8
Dimension001
100
AcDbDimension
  2
*Dimension001
 10
141.463
 20
133.715
 30
0
 11
170.332
 21
136.245
 31
0
 70
3
  1
⌀5
  3
STANDARD
100
AcDbDiametricDimension
 15
136.494
 25
134.278
 35
0
 40
0
  0
DIMENSION
  5
AAF
330
A02
100
AcDbEntity
  8
Dimension002
100
AcDbDimension
  2
*Dimension002
 10
149.897
 20
108.687
 30
0
 11
173.029
 21
109.753
 31
0
 70
3
  1
⌀3
  3
STANDARD
100
AcDbDiametricDimension
 15
146.96
 25
109.299
 35
0
 40
0
  0
ENDSEC
  0
SECTION
  2
OBJECTS
  0
DICTIONARY
  5
F000
330
0
100
AcDbDictionary
  3
ACAD_GROUP
350
F001
  0
DICTIONARY
  5
F001
330
F000
100
AcDbDictionary
  0
ENDSEC
  0
EOF